HIERARCHY
ROOT SpineBase
{
  OFFSET 0.000000 0.000000 0.000000
  CHANNELS 6 Xposition Yposition Zposition Zrotation Xrotation Yrotation
  JOINT SpineMid
  {
    OFFSET 0.000000 32.136942 0.000000
    CHANNELS 3 Zrotation Xrotation Yrotation
    JOINT SpineShoulder
    {
      OFFSET 0.308815 23.958762 -0.731849
      CHANNELS 3 Zrotation Xrotation Yrotation
      JOINT Neck
      {
        OFFSET 0.214572 7.950864 -0.561218
        CHANNELS 3 Zrotation Xrotation Yrotation
        JOINT Head
        {
          OFFSET 4.399217 12.407418 2.884183
          CHANNELS 3 Zrotation Xrotation Yrotation
          End Site
          {
            OFFSET 0 0 0
          }
        }
      }
      JOINT ShoulderLeft
      {
        OFFSET -7.946724 -0.670958 -13.822087
        CHANNELS 3 Zrotation Xrotation Yrotation
        JOINT ElbowLeft
        {
          OFFSET -3.525775 -23.835067 -6.760708
          CHANNELS 3 Zrotation Xrotation Yrotation
          JOINT WristLeft
          {
            OFFSET 5.018362 -19.413494 -0.573926
            CHANNELS 3 Zrotation Xrotation Yrotation
            JOINT HandLeft
            {
              OFFSET 1.437773 -6.183045 1.868264
              CHANNELS 3 Zrotation Xrotation Yrotation
              JOINT HandTipLeft
              {
                OFFSET 1.711836 -7.967573 -1.853468
                CHANNELS 3 Zrotation Xrotation Yrotation
                End Site
                {
                  OFFSET 0 0 0
                }
              }
              JOINT ThumbLeft
              {
                OFFSET -0.209841 -4.139376 -2.548050
                CHANNELS 3 Zrotation Xrotation Yrotation
                End Site
                {
                  OFFSET 0 0 0
                }
              }
            }
          }
        }
      }
      JOINT ShoulderRight
      {
        OFFSET 10.302061 -3.378601 14.634896
        CHANNELS 3 Zrotation Xrotation Yrotation
        JOINT ElbowRight
        {
          OFFSET 1.545877 -25.260866 5.805185
          CHANNELS 3 Zrotation Xrotation Yrotation
          JOINT WristRight
          {
            OFFSET 3.077139 -25.809107 -4.271673
            CHANNELS 3 Zrotation Xrotation Yrotation
            JOINT HandRight
            {
              OFFSET -0.538180 -4.931713 -1.529625
              CHANNELS 3 Zrotation Xrotation Yrotation
              JOINT HandTipRight
              {
                OFFSET -0.522658 -3.836419 -3.265177
                CHANNELS 3 Zrotation Xrotation Yrotation
                End Site
                {
                  OFFSET 0 0 0
                }
              }
              JOINT ThumbRight
              {
                OFFSET -1.296518 2.397072 -3.650685
                CHANNELS 3 Zrotation Xrotation Yrotation
                End Site
                {
                  OFFSET 0 0 0
                }
              }
            }
          }
        }
      }
    }
  }
  JOINT HipLeft
  {
    OFFSET -2.928096 2.285571 -8.697194
    CHANNELS 3 Zrotation Xrotation Yrotation
    JOINT KneeLeft
    {
      OFFSET -8.082786 -30.551995 -4.684594
      CHANNELS 3 Zrotation Xrotation Yrotation
      JOINT AnkleLeft
      {
        OFFSET -6.031162 -38.264380 3.821663
        CHANNELS 3 Zrotation Xrotation Yrotation
        JOINT FootLeft
        {
          OFFSET 9.546128 -2.966483 -8.833400
          CHANNELS 3 Zrotation Xrotation Yrotation
          End Site
          {
            OFFSET 0 0 0
          }
        }
      }
    }
  }
  JOINT HipRight
  {
    OFFSET 5.094544 -0.029765 1.866800
    CHANNELS 3 Zrotation Xrotation Yrotation
    JOINT KneeRight
    {
      OFFSET -0.943485 -30.198775 2.418137
      CHANNELS 3 Zrotation Xrotation Yrotation
      JOINT AnkleRight
      {
        OFFSET -4.030440 -37.693935 6.122499
        CHANNELS 3 Zrotation Xrotation Yrotation
        JOINT FootRight
        {
          OFFSET 6.181135 -5.996098 -4.041176
          CHANNELS 3 Zrotation Xrotation Yrotation
          End Site
          {
            OFFSET 0 0 0
          }
        }
      }
    }
  }
}
MOTION
Frames: 7
Frame Time: 0.033333
-113.701049 71.900081 340.568081 -29.110044 -15.400629 -54.636054 -1.628144 0.352080 50.387958 1.560994 1.013221 -0.839202 0.244932 10.888494 10.812158 0.000000 0.000000 0.000000 39.065715 14.892860 -7.993092 6.799674 6.726134 4.023235 17.753798 18.664501 11.222493 -19.018423 -15.153919 -20.481312 0.000000 0.000000 0.000000 0.000000 0.000000 0.000000 25.385722 29.819355 -0.515511 18.906044 27.774849 0.672009 46.696524 -9.007907 -2.035156 -11.322670 -5.569709 -21.541510 0.000000 0.000000 0.000000 0.000000 0.000000 0.000000 4.630653 52.003736 43.902894 -9.786826 -13.520425 5.198629 -14.914559 -10.391864 9.173166 0.000000 0.000000 0.000000 25.233899 59.623039 36.703995 -33.680062 -3.228184 -6.691848 3.275274 -4.422273 5.164812 0.000000 0.000000 0.000000
-111.446183 71.219315 341.333897 -25.212457 -15.184723 -55.693459 -1.671120 0.250485 52.116506 1.386230 0.990739 -0.713053 -1.616006 11.190847 10.106758 0.000000 0.000000 0.000000 35.797344 14.275858 -7.740340 8.266274 6.569175 3.842856 17.921027 22.089037 11.194874 -23.218806 -16.810129 -22.401545 0.000000 0.000000 0.000000 0.000000 0.000000 0.000000 21.738600 29.937110 -0.164947 19.522889 22.160590 0.805582 57.404322 3.111225 -12.747694 -16.856478 -15.682368 -19.478363 0.000000 0.000000 0.000000 0.000000 0.000000 0.000000 -8.385766 45.728937 52.670369 -2.442223 -15.873051 6.248668 -13.582075 -7.521874 10.578510 0.000000 0.000000 0.000000 14.695811 48.141043 45.524313 -22.006618 5.885109 -3.954448 2.735306 -4.143100 8.175413 0.000000 0.000000 0.000000
-109.423010 70.816539 342.048720 -21.976725 -14.785824 -55.110381 -1.413807 0.271101 52.055588 1.186309 0.882154 -0.613071 -2.644576 11.823422 9.205070 0.000000 0.000000 0.000000 32.366688 13.628598 -7.232159 8.706363 7.213922 3.593628 21.004612 22.672671 11.742533 -29.068640 -15.974530 -24.447642 0.000000 0.000000 0.000000 0.000000 0.000000 0.000000 18.532089 29.667076 0.059099 18.729672 18.641494 1.076518 54.025013 15.228437 -23.923327 -7.627228 -24.217233 -12.794674 0.000000 0.000000 0.000000 0.000000 0.000000 0.000000 -16.000550 40.925214 55.703218 1.532309 -18.296576 6.881070 -15.325838 -10.262582 11.270278 0.000000 0.000000 0.000000 9.619585 41.726554 48.383949 -17.164174 8.085183 -3.317419 2.664600 -2.266659 10.619697 0.000000 0.000000 0.000000
-108.061274 70.908219 342.563637 -19.919401 -14.345487 -55.187058 -0.876255 0.294587 52.415239 0.953133 0.636573 -0.557135 -3.382524 12.980111 8.572271 0.000000 0.000000 0.000000 30.071108 13.351693 -6.995729 9.895886 7.947133 3.304107 22.485643 23.658813 12.067979 -34.341387 -15.186330 -26.240742 0.000000 0.000000 0.000000 0.000000 0.000000 0.000000 16.736454 30.121217 0.120154 17.249166 16.294462 1.286745 41.848462 29.193170 -30.316511 10.861216 -32.064295 -0.054257 0.000000 0.000000 0.000000 0.000000 0.000000 0.000000 -17.898451 37.585170 56.380714 1.764696 -17.937909 6.261123 -11.262041 -8.563367 7.647575 0.000000 0.000000 0.000000 3.001903 43.002654 52.044362 -19.374719 -0.507599 -4.078741 2.915949 2.647042 12.775916 0.000000 0.000000 0.000000
-107.508539 71.627923 342.675369 -19.039809 -13.518272 -53.888071 -0.183022 0.895820 51.268990 0.785269 0.425761 -0.519574 -2.335167 13.018401 7.379823 0.000000 0.000000 0.000000 28.924795 12.682955 -6.919302 9.444998 8.734227 3.392369 22.004853 24.456868 12.033111 -33.655069 -16.650082 -26.609008 0.000000 0.000000 0.000000 0.000000 0.000000 0.000000 15.695972 29.717907 0.198657 15.739794 15.266535 1.284691 36.254090 32.882886 -29.866200 -0.697036 -29.604096 -3.201905 0.000000 0.000000 0.000000 0.000000 0.000000 0.000000 -17.075135 36.158464 54.881718 2.139195 -17.343577 6.032821 -10.386981 -8.555080 7.359001 0.000000 0.000000 0.000000 2.517295 41.211750 51.428674 -17.371486 -1.719028 -3.717197 0.802657 4.833067 14.928729 0.000000 0.000000 0.000000
-107.136087 72.501796 342.669448 -18.176108 -12.680471 -52.914205 -0.040554 0.846781 50.525260 0.562612 0.262405 -0.504147 0.381323 12.064570 6.028187 0.000000 0.000000 0.000000 27.807436 11.784787 -6.368784 9.227362 10.720091 3.308420 20.906304 23.438752 12.283810 -30.358127 -18.245593 -25.933470 0.000000 0.000000 0.000000 0.000000 0.000000 0.000000 15.504068 29.204652 0.258694 14.428686 15.949718 1.267598 28.995506 32.282498 -26.099254 -16.654290 -24.821445 -6.442583 0.000000 0.000000 0.000000 0.000000 0.000000 0.000000 -15.347983 34.806341 53.316759 1.701444 -16.228521 5.579271 -9.626218 -8.511127 7.263883 0.000000 0.000000 0.000000 2.286253 38.327119 50.893946 -14.731589 -1.331009 -3.156333 5.003370 9.644075 15.181011 0.000000 0.000000 0.000000
-107.293803 73.598585 342.426619 -18.090141 -11.584926 -51.523953 0.297600 1.217203 49.274263 0.839946 0.087467 -0.522332 2.710423 10.338781 4.907032 0.000000 0.000000 0.000000 26.839791 10.342534 -5.828036 9.530931 12.042369 3.080273 20.398060 25.959033 12.116435 -29.816975 -20.679299 -26.820162 0.000000 0.000000 0.000000 0.000000 0.000000 0.000000 15.022896 28.664558 0.421377 15.587665 17.360419 0.950643 19.571783 31.189651 -22.971559 -17.897307 -25.597646 -4.947020 0.000000 0.000000 0.000000 0.000000 0.000000 0.000000 -11.577508 34.495282 50.752379 0.313899 -14.626521 5.020928 -9.011041 -8.532872 7.380231 0.000000 0.000000 0.000000 4.222204 36.671307 49.148584 -13.391662 -0.863953 -2.802375 5.729201 11.736233 15.527157 0.000000 0.000000 0.000000
